<svg xmlns="http://www.w3.org/2000/svg" width="16" height="16" viewBox="0 0 1024 1024" fill="none" stroke="#000000"
    stroke-width="20" stroke-linecap="round" stroke-linejoin="round">
    <path d="M890.752 120.533333l6.528 6.186667 6.186667 6.528a152.704 152.704 0 0 1-6.186667 209.365333L386.645333 853.333333a96 96 0 0 1-42.666666 24.746667l-218.24 59.52a32 32 0 0 1-39.253334-39.296l59.477334-218.282667a96 96 0 0 1 24.746666-42.624L681.386667 126.72a152.704 152.704 0 0 1 209.408-6.186667zM640 258.602667l-424.021333 424.021333a32 32 0 0 0-8.234667 14.208l-44.8 164.266667 164.266667-44.8A32 32 0 0 0 341.333333 807.978667L765.44 384 640 258.56zM278.4 469.333333l-64 64H117.333333a32 32 0 0 1 0-64h161.066667z m170.666667-170.666666l-64 64H117.333333a32 32 0 0 1 0-64h331.733334z m277.546666-126.72l-41.386666 41.386666 125.397333 125.44 41.386667-41.386666a88.661333 88.661333 0 1 0-125.397334-125.44zM619.733333 128l-64 64H117.333333a32 32 0 0 1 0-64h502.4z"
        fill="#757575"></path>
</svg>